<?xml version="1.0" encoding="UTF-8"?> <svg xmlns="http://www.w3.org/2000/svg" width="1200" height="1200" viewBox="0 0 1200 1200" fill="none"> <g clip-path="url(#clip0_81_119)"> <path d="M1200 0H0V1200H1200V0Z" fill="#96D2F5"></path> <path d="M0 985.52L147.43 1117L1200 929.3" stroke="#1D1D1B" stroke-width="4" stroke-miterlimit="10" stroke-linecap="round" stroke-linejoin="round"></path> <path d="M0 627.27L1050.57 448.14L1200 627.27" stroke="#1D1D1B" stroke-width="4" stroke-miterlimit="10" stroke-linecap="round" stroke-linejoin="round"></path> <path d="M0 944.83L145.87 1073.17L1200 896.3" stroke="#1D1D1B" stroke-width="4" stroke-miterlimit="10" stroke-linecap="round" stroke-linejoin="round"></path> <path d="M847.09 382.88C847.09 382.88 933.4 295.76 939.96 297.4C946.52 299.03 922.35 348.41 922.35 348.41C922.35 348.41 940.97 354.09 948.26 359.19C948.26 359.19 991.76 320.75 999.88 325.57C1008 330.4 969.65 373.88 970.65 383.65C971.65 393.42 970.91 409.03 962.3 422.82C962.3 422.82 1053.3 365.89 1143.17 443.81C1233.04 521.73 1064.67 624.05 969.59 596.63C874.55 569.22 878.96 537.93 878.96 537.93C878.96 537.93 861.69 539.43 855.88 529.05C850.07 518.67 820.99 531.17 826.27 516.73C831.54 502.28 847.09 382.88 847.09 382.88Z" fill="#FFFCF1"></path> <path d="M886.58 372.38C886.58 372.38 889.46 389.77 904.35 379.78" stroke="#1D1D1B" stroke-width="4" stroke-miterlimit="10" stroke-linecap="round" stroke-linejoin="round"></path> <path d="M372.02 582.58L379.31 691.89L320.84 702.32L325.53 732.85L507.27 698.41L489.88 557.72L372.02 582.58Z" fill="#CCECFF"></path> <path d="M52.3999 185.02L838.14 113.02L858.49 530.93L113.44 626.41L52.3999 185.02Z" fill="#CCECFF"></path> <path d="M1100.3 728.95C1082.29 706.59 1063.92 726.96 1063.92 726.96L1047.7 788.1C1047.7 788.09 1118.31 751.32 1100.3 728.95ZM1059.04 765.87L1064.77 741.33C1064.77 741.33 1079.84 723.81 1089.54 733.82C1099.24 743.83 1059.04 765.87 1059.04 765.87Z" fill="#CCECFF"></path> <path d="M393.96 390.86C393.96 390.86 337.91 402.66 315.38 430.02C292.85 457.38 308.67 557.73 308.67 557.73L553.76 524.16C553.76 524.16 541.2 411.25 524.04 390.87C506.88 370.49 475.66 368.88 444.87 378.8L393.96 390.86Z" fill="#026CFF"></path> <path d="M423.83 247.91C423.83 247.91 433.84 234.89 448.25 243.32C462.66 251.75 448.25 282.11 448.25 282.11L423.83 247.91Z" fill="#1D1D1B"></path> <path d="M395.84 349.6L396.94 390.16C411.39 402.37 433.5 397.51 441.5 380.36L441.72 379.9L435.18 347.65L395.84 349.6Z" fill="#FDDED9"></path> <path d="M268.5 826.72L259.61 798.74C259.61 798.74 201.08 797.23 180.7 780.67C160.94 764.63 181.87 767.95 181.87 767.95C181.87 767.95 170.91 755.95 174.57 750.21C178.23 744.47 191.27 754.91 191.27 754.91C191.27 754.91 176.4 741.61 179.79 735.34C183.18 729.08 201.7 742.12 201.7 742.12C201.7 742.12 186.83 728.03 195.96 723.86C205.09 719.69 238.24 745.77 269.26 741.6C269.26 741.6 259.61 725.95 253.61 717.34C247.61 708.73 249.44 700.64 270.57 714.73C291.7 728.82 313.35 781.51 323 799.51L268.5 826.72Z" fill="#FDDED9"></path> <path d="M555.17 623.96C555.17 623.96 469.08 630.22 444.82 695.18C420.56 760.14 393.96 950.3 393.96 950.3L325.09 787.13L260.13 825.09C260.13 825.09 324.7 1162 446.78 1144.39C568.87 1126.78 555.17 850.91 555.17 850.91H870.95C870.95 850.91 877.6 742.91 849.43 684.21C821.26 625.51 806.34 591.96 702.28 593.47C598.22 594.98 555.17 623.96 555.17 623.96Z" fill="#FFFCF1"></path> <path d="M431.85 1200L455.87 879.81C457.42 860.2 472.41 844.3 491.9 841.62L867.68 789.84C883.48 787.66 897.56 799.94 897.56 815.88V1200H431.85Z" fill="#026CFF"></path> <path d="M605.26 395.43C661.61 378.21 694.42 450.21 690.96 497.56C687.44 545.69 701.53 606.73 755.53 640.78C809.53 674.82 914.01 761.69 851.79 883.78C789.57 1005.87 489.05 881.43 539.24 521.43C539.23 521.43 548.91 412.65 605.26 395.43Z" fill="#1D1D1B"></path> <path d="M181.87 767.96C181.87 767.96 210.44 782.24 235.48 782.63" stroke="#1D1D1B" stroke-width="4" stroke-miterlimit="10" stroke-linecap="round" stroke-linejoin="round"></path> <path d="M191.26 754.91C191.26 754.91 221.19 765.8 238.02 767.95" stroke="#1D1D1B" stroke-width="4" stroke-miterlimit="10" stroke-linecap="round" stroke-linejoin="round"></path> <path d="M201.7 742.13C201.7 742.13 221.4 752.11 241.74 752.7" stroke="#1D1D1B" stroke-width="4" stroke-miterlimit="10" stroke-linecap="round" stroke-linejoin="round"></path> <path d="M399.22 914.84L386.91 994.91" stroke="#1D1D1B" stroke-width="4" stroke-miterlimit="10" stroke-linecap="round" stroke-linejoin="round"></path> <path d="M406.02 250.72C406.02 250.72 441 242.94 449.28 280.96C457.7 319.62 450.17 373.89 414.85 373.57C361.62 373.08 370.8 260.67 406.02 250.72Z" fill="#FDDED9"></path> <path d="M369.81 311.43C369.81 311.43 409.08 306.61 400.66 281.73C400.66 281.73 437.54 276.97 430.01 250.07C422.48 223.16 335.94 253.09 369.81 311.43Z" fill="#1D1D1B"></path> <path d="M388.27 311.16C388.27 311.16 377.2 299.03 368.88 308.98C360.56 318.93 372.87 340.12 386.62 334.27" fill="#FDDED9"></path> <path d="M388.27 311.16C388.27 311.16 377.2 299.03 368.88 308.98C360.56 318.93 372.87 340.12 386.62 334.27" stroke="black" stroke-width="4" stroke-miterlimit="10" stroke-linecap="round" stroke-linejoin="round"></path> <path d="M382.81 324.58C382.81 324.58 379.88 316.65 373.76 314.13Z" fill="#FDDED9"></path> <path d="M382.81 324.58C382.81 324.58 379.88 316.65 373.76 314.13" stroke="black" stroke-width="4" stroke-miterlimit="10" stroke-linecap="round" stroke-linejoin="round"></path> <path d="M422.01 305.96C423.021 305.96 423.84 304.496 423.84 302.69C423.84 300.884 423.021 299.42 422.01 299.42C421 299.42 420.18 300.884 420.18 302.69C420.18 304.496 421 305.96 422.01 305.96Z" fill="black"></path> <path d="M440.2 304.14C441.211 304.14 442.03 302.676 442.03 300.87C442.03 299.064 441.211 297.6 440.2 297.6C439.189 297.6 438.37 299.064 438.37 300.87C438.37 302.676 439.189 304.14 440.2 304.14Z" fill="black"></path> <path d="M432.63 309.66C432.63 309.66 443.12 313.37 451.13 313.53C459.14 313.69 451.9 323.3 440.73 320.38" fill="#FDDED9"></path> <path d="M432.63 309.66C432.63 309.66 443.12 313.37 451.13 313.53C459.14 313.69 451.9 323.3 440.73 320.38" stroke="black" stroke-width="4" stroke-miterlimit="10" stroke-linecap="round" stroke-linejoin="round"></path> <path d="M410.7 293.99C410.7 293.99 417.08 287.23 423.84 292.46" stroke="#1D1D1B" stroke-width="4" stroke-miterlimit="10" stroke-linecap="round" stroke-linejoin="round"></path> <path d="M434.1 290.65C434.1 290.65 441.76 284.4 448.26 290.65" stroke="#1D1D1B" stroke-width="4" stroke-miterlimit="10" stroke-linecap="round" stroke-linejoin="round"></path> <path d="M423.77 335.82C423.77 335.82 426.19 337.86 430.02 337.22" stroke="#1D1D1B" stroke-width="4" stroke-miterlimit="10" stroke-linecap="round" stroke-linejoin="round"></path> <path d="M441.19 358.53C441.19 358.53 432.76 375.27 408.67 372.97" stroke="#1D1D1B" stroke-width="4" stroke-miterlimit="10" stroke-linecap="round" stroke-linejoin="round"></path> <path d="M389.4 254.61C403.45 254.61 414.84 243.22 414.84 229.17C414.84 215.12 403.45 203.73 389.4 203.73C375.35 203.73 363.96 215.12 363.96 229.17C363.96 243.22 375.35 254.61 389.4 254.61Z" fill="#1D1D1B"></path> <path d="M361.48 483.13L371.27 546.17" stroke="#1D1D1B" stroke-width="4" stroke-miterlimit="10" stroke-linecap="round" stroke-linejoin="round"></path> <path d="M264.53 845.8L326.65 810.22" stroke="#1D1D1B" stroke-width="4" stroke-miterlimit="10" stroke-linecap="round" stroke-linejoin="round"></path> <path d="M529.35 802.39L525.01 837.06" stroke="#1D1D1B" stroke-width="4" stroke-miterlimit="10" stroke-linecap="round" stroke-linejoin="round"></path> <path d="M86.8401 213.4L806.84 147.45L825.62 489.07L146.31 577.11L86.8401 213.4Z" stroke="#1D1D1B" stroke-width="4" stroke-miterlimit="10" stroke-linecap="round" stroke-linejoin="round"></path> <path d="M421.66 172.35C424.604 172.35 426.99 169.964 426.99 167.02C426.99 164.076 424.604 161.69 421.66 161.69C418.716 161.69 416.33 164.076 416.33 167.02C416.33 169.964 418.716 172.35 421.66 172.35Z" fill="#1D1D1B"></path> <path d="M372.73 593.18L458.67 582.17L373.93 611.21L372.73 593.18Z" fill="#1D1D1B"></path> <path d="M367.28 694.04L396.49 689.02" stroke="#1D1D1B" stroke-width="4" stroke-miterlimit="10" stroke-linecap="round" stroke-linejoin="round"></path> <path d="M964.31 703.83C964.31 703.83 960.14 755.74 972.38 796.34C977.07 811.89 990.65 823.15 1006.81 824.77C1007.06 824.79 1007.3 824.82 1007.55 824.84C1024.94 826.4 1041.24 816.15 1047.9 800.01C1057.24 777.38 1070.07 739.95 1066.81 711.46L964.31 703.83Z" fill="#CCECFF"></path> <path d="M1066.77 711.497C1067.88 696.594 1045.84 682.804 1017.54 680.695C989.234 678.586 965.39 688.958 964.28 703.861C963.17 718.764 985.213 732.554 1013.52 734.663C1041.82 736.772 1065.66 726.4 1066.77 711.497Z" fill="#1D1D1B"></path> <path d="M968.45 728.21C968.45 728.21 1009.29 763.73 1061.91 733.25" stroke="#1D1D1B" stroke-width="4" stroke-miterlimit="10" stroke-linecap="round" stroke-linejoin="round"></path> <path d="M929.18 391.96C929.18 391.96 932.76 405.24 945.97 397.52" stroke="#1D1D1B" stroke-width="4" stroke-miterlimit="10" stroke-linecap="round" stroke-linejoin="round"></path> <path d="M908.13 407.8C908.13 407.8 896.95 395.3 905.53 397.92C914.33 400.62 927.82 404.43 908.13 407.8Z" fill="#1D1D1B"></path> <path d="M1134.3 527.68C1134.3 527.68 1088.07 569.23 1031.48 552.19C974.89 535.15 885.4 478.38 878.94 537.92" stroke="#1D1D1B" stroke-width="4" stroke-miterlimit="10" stroke-linecap="round" stroke-linejoin="round"></path> <path d="M962.29 422.81C962.29 422.81 953.11 437.08 945.15 447.52" stroke="#1D1D1B" stroke-width="4" stroke-miterlimit="10" stroke-linecap="round" stroke-linejoin="round"></path> <path d="M922.35 348.41L918.28 358.19" stroke="#1D1D1B" stroke-width="4" stroke-miterlimit="10" stroke-linecap="round" stroke-linejoin="round"></path> <path d="M954.66 353.69L945.77 361.67" stroke="#1D1D1B" stroke-width="4" stroke-miterlimit="10" stroke-linecap="round" stroke-linejoin="round"></path> <path d="M115.25 1088.3V1200" stroke="#1D1D1B" stroke-width="4" stroke-miterlimit="10" stroke-linecap="round" stroke-linejoin="round"></path> <path d="M191.26 1109.18V1200" stroke="#1D1D1B" stroke-width="4" stroke-miterlimit="10" stroke-linecap="round" stroke-linejoin="round"></path> <path d="M876.07 929.3L870.96 1182.83" stroke="#1D1D1B" stroke-width="4" stroke-miterlimit="10" stroke-linecap="round" stroke-linejoin="round"></path> <path d="M1062.94 754.38C1062.94 754.38 1056.48 780.08 1049.57 795.9" stroke="#1D1D1B" stroke-width="4" stroke-miterlimit="10" stroke-linecap="round" stroke-linejoin="round"></path> <path d="M498.83 444.04L520.84 528.57" stroke="#1D1D1B" stroke-width="4" stroke-miterlimit="10" stroke-linecap="round" stroke-linejoin="round"></path> </g> <defs> <clipPath id="clip0_81_119"> <rect width="1200" height="1200" fill="white"></rect> </clipPath> </defs> </svg> 